<!DOCTYPE svg PUBLIC "-//W3C//DTD SVG 1.1//EN" "http://www.w3.org/Graphics/SVG/1.1/DTD/svg11.dtd">

<!-- Uploaded to: SVG Repo, www.svgrepo.com, Transformed by: SVG Repo Mixer Tools -->
<svg height="800px" width="800px" version="1.1" id="Layer_1" xmlns="http://www.w3.org/2000/svg" xmlns:xlink="http://www.w3.org/1999/xlink" viewBox="0 0 512 512" xml:space="preserve" fill="#000000">

<g id="SVGRepo_bgCarrier" stroke-width="0"/>

<g id="SVGRepo_tracerCarrier" stroke-linecap="round" stroke-linejoin="round"/>

<g id="SVGRepo_iconCarrier"> <g transform="translate(1 1)"> <g> <path style="fill:#FD9808;" d="M280.6,348.867c0,42.667-11.093,76.8-25.6,76.8s-25.6-34.133-25.6-76.8s11.093-76.8,25.6-76.8 S280.6,306.2,280.6,348.867"/> <path style="fill:#FD9808;" d="M348.867,272.067l-1.707,2.56c-2.56,31.573-8.533,75.093-23.893,91.307c0,0,0,0,0,0.853l0,0 l-0.853,0.853l0,0l56.32,39.253c5.973,4.267,13.653,0,13.653-6.827v-34.133C391.533,298.52,348.867,272.067,348.867,272.067"/> <path style="fill:#FD9808;" d="M187.587,366.787C186.733,366.787,186.733,366.787,187.587,366.787 C186.733,365.933,186.733,365.933,187.587,366.787c-16.213-17.067-22.187-59.733-24.747-92.16l-1.707-2.56 c0,0-42.667,26.453-42.667,93.867v34.133c0,6.827,7.68,11.093,13.653,6.827l56.32-39.253l0,0 C187.587,367.64,187.587,366.787,187.587,366.787"/> </g> <g> <path style="fill:#FFDD09;" d="M285.72,394.947c0,0-2.56-3.413-8.533-6.827c-5.12,23.04-12.8,37.547-22.187,37.547 s-17.067-14.507-22.187-36.693c-2.56,1.707-5.973,3.413-8.533,6.827c-14.507,14.507-16.213,37.547-5.12,54.613L255,502.467 l34.987-52.907C301.933,432.493,300.227,409.453,285.72,394.947"/> <path style="fill:#FFDD09;" d="M348.867,237.933c0-23.04-0.853-43.52-2.56-59.733c-3.413-33.28-11.093-65.707-24.747-95.573 C290.84,19.48,255,7.533,255,7.533s-35.84,11.947-65.707,75.093c-14.507,29.867-22.187,62.293-24.747,95.573 c-1.707,16.213-2.56,36.693-2.56,59.733c0,0-0.853,101.547,25.6,128c0,0,12.8,17.92,46.933,23.893 c-2.56-11.947-4.267-25.6-4.267-40.96c0-42.667,11.093-76.8,25.6-76.8s25.6,34.133,25.6,76.8c0,15.36-1.707,29.013-4.267,40.96 c34.133-5.973,46.933-23.893,46.933-23.893C349.72,339.48,348.867,237.933,348.867,237.933"/> </g> <path style="fill:#FD9808;" d="M255,84.333c22.187,0,42.667-6.827,57.173-17.92C284.867,16.92,255,7.533,255,7.533 s-29.867,9.387-57.173,58.88C212.333,77.507,232.813,84.333,255,84.333"/> <path style="fill:#1CD759;" d="M314.733,178.2c0,33.28-26.453,59.733-59.733,59.733s-59.733-26.453-59.733-59.733 S221.72,118.467,255,118.467S314.733,144.92,314.733,178.2"/> <path style="fill:#1CB0F6;" d="M284.867,178.2c0,16.213-13.653,29.867-29.867,29.867s-29.867-13.653-29.867-29.867 s13.653-29.867,29.867-29.867S284.867,161.987,284.867,178.2"/> <path d="M255,434.2c-23.04,0-34.133-44.373-34.133-85.333S231.96,263.533,255,263.533s34.133,44.373,34.133,85.333 S278.04,434.2,255,434.2z M255,280.6c-4.267,0-17.067,23.893-17.067,68.267s12.8,68.267,17.067,68.267 c4.267,0,17.067-23.893,17.067-68.267S259.267,280.6,255,280.6z"/> <path d="M276.333,398.36c-2.56,0-4.267-0.853-5.973-2.56s-2.56-5.12-2.56-7.68c2.56-11.947,3.413-25.6,3.413-39.253 c0-44.373-12.8-68.267-17.067-68.267s-17.067,23.893-17.067,68.267c0,13.653,1.707,27.307,3.413,39.253 c0.853,2.56,0,5.973-2.56,7.68c-1.707,1.707-5.12,2.56-7.68,2.56c-33.28-5.973-48.64-23.04-51.2-26.453 C152.6,342.893,152.6,248.173,152.6,237.933c0-20.48,0.853-40.96,2.56-60.587c3.413-35.84,11.947-69.12,25.6-98.133 C212.333,12.653,250.733-0.147,252.44-1c1.707,0,3.413,0,5.12,0c1.707,0.853,40.107,13.653,70.827,79.36 c13.653,29.013,22.187,62.293,25.6,98.133c1.707,19.627,2.56,40.107,2.56,60.587c0,11.093,0,104.96-27.307,133.973 c-2.56,3.413-17.92,20.48-51.2,26.453C277.187,398.36,277.187,398.36,276.333,398.36z M255,16.92 c-8.533,4.267-34.987,20.48-58.027,69.973c-12.8,27.307-21.333,58.88-24.747,92.16c-1.707,18.773-2.56,39.253-2.56,58.88 c0,27.307,3.413,102.4,23.04,122.027l0.853,0.853c0,0.853,8.533,11.093,29.013,17.067c-0.853-8.533-1.707-18.773-1.707-29.013 c0-40.96,11.093-85.333,34.133-85.333s34.133,44.373,34.133,85.333c0,10.24-0.853,20.48-1.707,29.867 c20.48-5.973,29.013-17.067,29.013-17.067l0.853-0.853c19.627-20.48,23.04-95.573,23.04-122.88l0,0 c0-20.48-0.853-40.107-2.56-58.88c-3.413-34.133-11.093-64.853-24.747-92.16C289.987,37.4,263.533,21.187,255,16.92z"/> <path d="M383,417.987c-3.413,0-6.827-0.853-10.24-3.413l-56.32-39.253c-1.707-1.707-3.413-3.413-3.413-5.973s0.853-5.12,2.56-6.827 l0.853-0.853l0.853-0.853c11.093-11.093,18.773-41.813,22.187-86.187c0-0.853,0-2.56,0.853-3.413l1.707-2.56 c0.853-2.56,3.413-3.413,5.12-4.267c2.56-0.853,5.12,0,6.827,0.853c1.707,0.853,46.08,29.867,46.08,100.693v34.133 c0,6.827-3.413,11.947-9.387,15.36C388.12,417.133,385.56,417.987,383,417.987z M334.36,366.787L383,400.92v-34.133 c0-40.96-16.213-65.707-28.16-77.653C351.427,325.827,344.6,351.427,334.36,366.787z"/> <path d="M127,417.987c-2.56,0-5.12-0.853-7.68-1.707c-5.973-3.413-9.387-8.533-9.387-15.36v-34.133 c0-70.827,44.373-99.84,46.933-100.693c1.707-2.56,4.267-2.56,6.827-2.56c2.56,0.853,4.267,2.56,5.12,4.267l1.707,2.56 c0.853,0.853,0.853,1.707,0.853,3.413c3.413,43.52,11.093,75.093,22.187,86.187l0.853,0.853l0,0l0.853,0.853 c1.707,1.707,2.56,4.267,2.56,6.827s-1.707,5.12-3.413,5.973l-56.32,39.253C133.827,416.28,130.413,417.987,127,417.987z M155.16,288.28C143.213,300.227,127,324.973,127,365.933v34.133l48.64-34.133C165.4,352.28,158.573,325.827,155.16,288.28z"/> <path d="M255,511L255,511c-2.56,0-5.12-1.707-6.827-3.413l-35.84-52.907c-13.653-20.48-11.093-47.787,5.973-65.707 c2.56-2.56,5.973-5.12,10.24-7.68c2.56-1.707,5.12-1.707,7.68-0.853c2.56,0.853,4.267,3.413,5.12,5.973 c5.12,24.747,12.8,30.72,13.653,30.72s8.533-5.973,13.653-29.867c0.853-2.56,2.56-5.12,5.12-5.973s5.12-0.853,7.68,0 c5.973,3.413,9.387,6.827,10.24,7.68c17.067,17.067,19.627,44.373,5.973,65.707l-34.987,52.907C260.12,509.293,257.56,511,255,511z M228.547,404.333c-9.387,11.093-10.24,28.16-0.853,40.96l28.16,41.813l28.16-41.813c8.533-12.8,7.68-29.867-0.853-40.96 C275.48,423.96,266.093,434.2,255,434.2C243.907,434.2,234.52,423.96,228.547,404.333z"/> <path d="M255,246.467c-37.547,0-68.267-30.72-68.267-68.267s30.72-68.267,68.267-68.267s68.267,30.72,68.267,68.267 S292.547,246.467,255,246.467z M255,127c-28.16,0-51.2,23.04-51.2,51.2s23.04,51.2,51.2,51.2s51.2-23.04,51.2-51.2 S283.16,127,255,127z"/> <path d="M255,212.333c-18.773,0-34.133-15.36-34.133-34.133s15.36-34.133,34.133-34.133s34.133,15.36,34.133,34.133 S273.773,212.333,255,212.333z M255,161.133c-9.387,0-17.067,7.68-17.067,17.067s7.68,17.067,17.067,17.067 s17.067-7.68,17.067-17.067S264.387,161.133,255,161.133z"/> <path d="M255,92.867c-23.04,0-45.227-6.827-62.293-19.627c-3.413-2.56-4.267-7.68-2.56-11.093 C219.16,10.947,250.733-0.147,252.44-1c1.707,0,3.413,0,5.12,0c1.707,0.853,33.28,11.093,62.293,63.147 c1.707,3.413,0.853,8.533-2.56,11.093C300.227,86.04,278.04,92.867,255,92.867z M208.92,63.853 C222.573,71.533,237.933,75.8,255,75.8s32.427-4.267,46.08-11.947C281.453,32.28,261.827,20.333,255,16.92 C248.173,20.333,228.547,32.28,208.92,63.853z"/> </g> </g>

</svg>