<!DOCTYPE svg PUBLIC "-//W3C//DTD SVG 1.1//EN" "http://www.w3.org/Graphics/SVG/1.1/DTD/svg11.dtd">
<!-- Uploaded to: SVG Repo, www.svgrepo.com, Transformed by: SVG Repo Mixer Tools -->
<svg width="800px" height="800px" viewBox="-17.52 0 314.833 314.833" xmlns="http://www.w3.org/2000/svg" fill="#000000">
<g id="SVGRepo_bgCarrier" stroke-width="0"/>
<g id="SVGRepo_tracerCarrier" stroke-linecap="round" stroke-linejoin="round"/>
<g id="SVGRepo_iconCarrier">
<defs>
<style>.a{fill:#ffffff;}.b{fill:#7a7473;}.c{fill:#211715;}.d{fill:#5394cf;}.e{fill:#f2635f;}</style>
</defs>
<path class="a" d="M201.774,238.06c-1.29-.44-22.43-10.33-22.87-10.49-6.68-2.41-6.42-6.71-7.26-11.51a90.839,90.839,0,0,1-1.34-10.942c17.359-7.369,31.338-30.751,33.771-37.357.366-1.109,1.109-3.2,1.772-5.673.89-.157,1.392-.234,1.392-.234a17.406,17.406,0,0,0,8.1-3.65,26.25,26.25,0,0,0,6.79-8.912,41.313,41.313,0,0,0,4.213-21.9,13.777,13.777,0,0,0-1.444-5.547,9.749,9.749,0,0,0-7.011-4.661,10.325,10.325,0,0,0-8.263,2.417s7.195-57.863-69.551-57.863c-72.163,0-69.048,57.864-69.048,57.864a10.325,10.325,0,0,0-8.263-2.418,9.751,9.751,0,0,0-7.012,4.661,13.792,13.792,0,0,0-1.443,5.547,41.313,41.313,0,0,0,4.213,21.9,26.237,26.237,0,0,0,6.79,8.912,17.4,17.4,0,0,0,8.1,3.65s1,.153,2.639.4A70.238,70.238,0,0,0,89.432,188.4c6.031,7.218,12.764,12.755,20.087,16.241a91.041,91.041,0,0,1-1.369,11.419c-.843,4.807-.579,9.1-7.262,11.517-.442.159-21.58,10.046-22.867,10.485,0,0,.426,36.8,60.871,36.8S201.774,238.06,201.774,238.06Z"/>
<path class="a" d="M277.028,304.544c-2.547-5.272-4.715-10.731-7.642-15.816-2.592-4.5-7.367-15.3-17.094-23.924-5.153-4.568-17.815-13.829-37.114-22.816-3.493-1.626-7.43-3.515-11.4-5.341l-.132.094a111.716,111.716,0,0,1-127.5.054l-.178-.126c-3.958,1.819-7.877,3.7-11.357,5.319-19.3,8.987-31.961,18.248-37.113,22.816-9.728,8.625-14.5,19.422-17.095,23.924-2.927,5.085-5.1,10.544-7.642,15.816Z"/>
<path class="b" d="M202.507,71.032c4.064,4.5,12.191,7.656,21.223,7.7,9.785.038,18.525-3.432,23.873-7.909a8.177,8.177,0,0,0,2.356-2.766,2.471,2.471,0,0,0,.247-1.245c-.014-.178-.161-.85-.382-.889-5.535-1-7.781-6.236-8.34-11.8-.551-5.592.113-11.495-.711-17.048-1.192-8.032-3.7-15.351-5.645-18.068C226.563,5.279,217.461,3.539,210.063,2.883c-7.174-.637-16.25,2.771-21.027,8.161a21.859,21.859,0,0,0-5,18.471Z"/>
<path class="c" d="M200.527,73.012c4.265,4.623,10.742,7.059,16.838,7.984a43.2,43.2,0,0,0,21.641-2.165,36.585,36.585,0,0,0,8.444-4.38c2.712-1.945,6.478-4.936,5.379-8.764a3.644,3.644,0,0,0-1.592-2.184,16.248,16.248,0,0,0-2.255-.713,5.818,5.818,0,0,1-2.5-2.024,11.483,11.483,0,0,1-1.39-2.862,19.006,19.006,0,0,1-.808-3.787c-.4-3.945-.178-7.922-.3-11.879a59.583,59.583,0,0,0-1.652-11.852,57.224,57.224,0,0,0-3.162-9.744,35.79,35.79,0,0,0-4.719-7.482A31.59,31.59,0,0,0,207.118.039a30.966,30.966,0,0,0-17.945,6.988,24.276,24.276,0,0,0-8.328,17.959,25.524,25.524,0,0,0,.491,5.274,2.826,2.826,0,0,0,3.445,1.955,2.859,2.859,0,0,0,1.955-3.444,18.683,18.683,0,0,1,9.749-19.992,25.237,25.237,0,0,1,10.987-3.156,32.12,32.12,0,0,1,4.649.274c.539.058.061.006-.041-.008.158.022.316.044.473.068.319.05.638.1.956.157q1.107.2,2.2.469,1.011.255,2,.584c.3.1.593.205.886.315.171.064.34.13.509.2.261.1-.212-.1.227.1a26.069,26.069,0,0,1,4.415,2.523,33.961,33.961,0,0,1,8.188,8.9,32.136,32.136,0,0,1,4.247,9.728,56.942,56.942,0,0,1,2.241,14.739c.071,5.3-.379,10.943,1.379,16.041a15.176,15.176,0,0,0,3.333,5.709,11.237,11.237,0,0,0,2.5,1.937,12.944,12.944,0,0,0,1.822.82c.206.077.414.148.625.21.171.051.944.4.454.045l-1-1c-.013-.024-.175-.443-.073-.137.121.363-.083-.363-.046-.381-.127.063-.222.4-.315.527a10.408,10.408,0,0,1-1.975,1.819,30.166,30.166,0,0,1-3.3,2.148,34.917,34.917,0,0,1-8.941,3.464,36.05,36.05,0,0,1-20.695-.945,19.212,19.212,0,0,1-7.694-4.867c-2.45-2.654-6.4,1.314-3.96,3.96Z"/>
<path class="b" d="M209.62,119.6a10.325,10.325,0,0,1,8.263-2.417,9.821,9.821,0,0,1,2.346.655,109.343,109.343,0,0,0,1.792-25,80.611,80.611,0,0,0-11.364-38.685A76.009,76.009,0,0,0,200.2,40.768c-1.592-1.628-4.011-4.008-5.657-5.456a94.009,94.009,0,0,0-13.758-9.233,80.6,80.6,0,0,0-12.015-5.452A84.637,84.637,0,0,0,140.289,15.9c-19.084,0-35.287,5.617-48.255,15.03-15.057,10.929-32.107,30.4-33.471,61.909a100.293,100.293,0,0,0,.51,12.735,94.46,94.46,0,0,0,2.086,11.987,9.99,9.99,0,0,1,1.6-.376,10.325,10.325,0,0,1,8.263,2.418c22.044-5.06,47.217-19.465,52.468-21.89,19.849-4.5,38.872-13.567,50.375-27.718,2.425,8.356,6.431,19.643,9.375,24.575,4.165,6.98,16.235,22.685,26.381,25.032"/>
<path class="c" d="M171.458,71.752c1.45,4.857,3.064,9.671,4.9,14.4A62.772,62.772,0,0,0,181.449,97a81.887,81.887,0,0,0,15.681,18.521c3.418,2.924,7.305,5.7,11.745,6.776,3.5.848,5-4.551,1.489-5.4a13.776,13.776,0,0,1-4.3-1.774,31.753,31.753,0,0,1-4.455-3.123,69.928,69.928,0,0,1-8.7-8.817,81.191,81.191,0,0,1-6.181-8.308,51.863,51.863,0,0,1-4.549-9.13c-2.019-5.072-3.764-10.257-5.326-15.487-1.028-3.445-6.435-1.978-5.4,1.489Z"/>
<path class="c" d="M172.084,67.767C161.8,80.475,146.592,88.2,131.173,92.806q-3.182.949-6.408,1.732a17.182,17.182,0,0,0-3.717,1.254c-1.895.944-3.766,1.936-5.647,2.905-6.178,3.186-12.416,6.258-18.779,9.06A149.723,149.723,0,0,1,70.277,116.9c-3.51.813-2.024,6.214,1.488,5.4,15.586-3.612,30.361-10.535,44.547-17.785,2.15-1.1,4.289-2.22,6.44-3.32a14.2,14.2,0,0,1,2.01-1c.182-.057-.148.129-.124.125.269-.048.541-.125.808-.188q.809-.192,1.614-.393,1.61-.4,3.211-.845a112.57,112.57,0,0,0,24.328-9.75,72.345,72.345,0,0,0,21.445-17.417,2.885,2.885,0,0,0,0-3.96,2.82,2.82,0,0,0-3.96,0Z"/>
<path class="c" d="M211.6,121.581a7.472,7.472,0,0,1,8.493-.7c3.321,1.945,3.538,5.89,3.589,9.371.116,7.816-2.129,16.344-6.992,22.586a16.261,16.261,0,0,1-10.2,6.314,2.821,2.821,0,0,0-1.955,3.444,2.865,2.865,0,0,0,3.444,1.956c10.235-1.716,16.348-11.318,19.262-20.5a43.5,43.5,0,0,0,2.006-14.9c-.223-5.232-1.531-10.284-6.332-13.1a13.221,13.221,0,0,0-15.279,1.574,2.824,2.824,0,0,0,0,3.959,2.855,2.855,0,0,0,3.96,0Z"/>
<path class="c" d="M204.332,154.165a35.14,35.14,0,0,1-1.712,9.027c-.329,1.09-.69,2.17-1.052,3.25-.089.266-.176.532-.276.795-.044.117-.1.232-.139.351-.16.471.309-.683.04-.095a73.581,73.581,0,0,1-4.684,8.543c-4.995,7.924-10.93,15.306-18.456,21.192a35.174,35.174,0,0,1-13.588,6.842c-3.512.8-2.026,6.2,1.488,5.4,10.291-2.348,18.907-9.8,25.684-17.558a88.986,88.986,0,0,0,14.176-21.11,44.6,44.6,0,0,0,4.119-16.637c.11-3.6-5.49-3.6-5.6,0Z"/>
<path class="c" d="M73,117.622a13.172,13.172,0,0,0-13.587-2.38,12.622,12.622,0,0,0-5.6,4.421,15.378,15.378,0,0,0-2.293,7.509c-.95,9.734,1.7,20.609,7.59,28.5,3.328,4.458,7.956,7.95,13.543,8.887A2.885,2.885,0,0,0,76.1,162.6a2.822,2.822,0,0,0-1.956-3.444c-7.842-1.315-12.451-8.305-14.927-15.325a38.868,38.868,0,0,1-2.248-11.811c-.1-3.43-.275-8.043,2.611-10.468a7.474,7.474,0,0,1,9.459.031,2.87,2.87,0,0,0,3.96,0,2.824,2.824,0,0,0,0-3.959Z"/>
<path class="c" d="M71.118,153.091a82.81,82.81,0,0,0,10.51,29.2c6.018,9.832,14.755,18.719,25.049,24.051a47.769,47.769,0,0,0,17.212,5.135,2.818,2.818,0,0,0,2.8-2.8,2.863,2.863,0,0,0-2.8-2.8c-9.742-1-18.683-5.9-25.845-12.475a66.34,66.34,0,0,1-17.8-27.111,92.328,92.328,0,0,1-3.73-14.692,2.824,2.824,0,0,0-3.445-1.956,2.863,2.863,0,0,0-1.955,3.444Z"/>
<path class="c" d="M89.007,228.211c-8.379,2.941-16.369,6.931-24.4,10.7a218.7,218.7,0,0,0-23.8,12.786,125.988,125.988,0,0,0-14.322,10.288A67.391,67.391,0,0,0,11.962,280.04c-1.531,2.664-2.945,5.395-4.438,8.08-2.7,4.853-4.783,10.012-7.187,15.011a2.875,2.875,0,0,0,1.005,3.831,2.825,2.825,0,0,0,3.831-1c2.07-4.305,3.9-8.726,6.094-12.971,1.349-2.611,2.8-5.181,4.212-7.762,3.658-6.7,7.963-13,13.663-18.145.765-.69,1.552-1.356,2.351-2.007q.627-.51,1.266-1.01.18-.143.362-.283c-.084.065-.428.328,0,0,.263-.2.525-.4.789-.6,2.449-1.837,4.969-3.579,7.533-5.25A196.1,196.1,0,0,1,63.8,245.452c8.747-4.191,17.528-8.625,26.692-11.841a2.869,2.869,0,0,0,1.955-3.444,2.826,2.826,0,0,0-3.444-1.956Z"/>
<path class="c" d="M189.288,233.611c8.048,2.825,15.7,6.688,23.417,10.3A214.5,214.5,0,0,1,236,256.433c2.78,1.748,5.513,3.572,8.174,5.5q.807.584,1.6,1.179l.7.527.384.293c-.449-.344-.012-.008.08.063.834.657,1.662,1.321,2.472,2.009a63.224,63.224,0,0,1,13.735,17.14c1.547,2.71,3.007,5.475,4.506,8.212,2.593,4.734,4.625,9.745,6.963,14.605a2.825,2.825,0,0,0,3.83,1,2.86,2.86,0,0,0,1.005-3.831c-6.785-14.109-13.07-29.482-25.01-40.159a108.749,108.749,0,0,0-13.127-9.781,196.163,196.163,0,0,0-22.942-12.784c-9.049-4.312-18.119-8.872-27.591-12.2a2.8,2.8,0,1,0-1.488,5.4Z"/>
<path class="c" d="M106.708,204.847a85.52,85.52,0,0,1-1.025,9.1c-.333,2-.554,4.06-1.025,6.038-.1.426-.225.844-.364,1.259-.262.786.251-.453-.111.291-.076.157-.155.311-.24.463a7.4,7.4,0,0,1-.421.671c.071-.1.3-.347-.068.074a6.443,6.443,0,0,1-1,.935,20.8,20.8,0,0,1-3.481,1.7c-5.3,2.405-10.567,4.9-15.858,7.335q-2.124.978-4.252,1.943-.712.321-1.427.637c-.248.111-.981.45.108-.041-.088.04-.179.074-.269.106a2.871,2.871,0,0,0-1.956,3.444,2.825,2.825,0,0,0,3.444,1.956c2.06-.729,4.049-1.773,6.032-2.682q4.868-2.235,9.724-4.494c2.387-1.106,4.769-2.223,7.162-3.314.365-.167,1.024-.655-.063.009,1.154-.7,2.521-.98,3.662-1.765a11.343,11.343,0,0,0,4.324-5.536,36.424,36.424,0,0,0,1.323-6.634,103.546,103.546,0,0,0,1.379-11.5,2.8,2.8,0,0,0-5.6,0Z"/>
<path class="c" d="M167.5,205.11a99.074,99.074,0,0,0,1.2,10.3c.348,2.095.563,4.257,1.092,6.315a11.334,11.334,0,0,0,3.293,5.68,12.909,12.909,0,0,0,3.27,2.125,15.367,15.367,0,0,1,1.811.741c-.832-.524-.733-.322-.414-.17,5.335,2.538,10.724,4.974,16.091,7.444,2.36,1.086,4.727,2.342,7.18,3.211a2.828,2.828,0,0,0,3.445-1.956,2.856,2.856,0,0,0-1.956-3.444c-.681-.241.66.3.024.016-.418-.186-.837-.37-1.255-.557q-1.736-.78-3.465-1.579-4.644-2.13-9.277-4.286c-2.412-1.119-4.821-2.243-7.237-3.353-.7-.322-1.409-.606-2.12-.9a7.851,7.851,0,0,1-2.46-1.546c-.167-.165-.327-.336-.478-.516-.318-.38.307.51-.128-.19-.116-.186-.23-.371-.334-.565-.057-.1-.4-.91-.2-.394a32.77,32.77,0,0,1-1.243-6.171,94.882,94.882,0,0,1-1.24-10.206,2.864,2.864,0,0,0-2.8-2.8,2.825,2.825,0,0,0-2.8,2.8Z"/>
<path class="c" d="M74.727,239.213a113.191,113.191,0,0,0,49.755,19.261,115.046,115.046,0,0,0,53.646-5.508,111.261,111.261,0,0,0,26.928-13.807,2.875,2.875,0,0,0,1-3.831,2.824,2.824,0,0,0-3.831-1A108.58,108.58,0,0,1,154.259,253a110.126,110.126,0,0,1-51.1-5.406,105.968,105.968,0,0,1-25.6-13.221,2.825,2.825,0,0,0-3.831,1,2.858,2.858,0,0,0,1,3.831Z"/>
<path class="d" d="M214.2,280.887c7.613-3.543,34.559-22.479,33.922-23.449-2.267-3.449-25.994-13.808-42.557-21.689-9.09-4.325-15.47-8.284-17.075-9.059-11.324,18.579-30.406,51.164-41.964,70.282C158.909,299.512,179.634,296.974,214.2,280.887Z"/>
<path class="d" d="M66.494,280.887c-7.612-3.543-34.559-22.479-33.921-23.449,2.266-3.449,25.993-13.808,42.557-21.689,9.089-4.325,15.47-8.284,17.075-9.059,11.324,18.579,30.406,51.164,41.964,70.282C121.782,299.512,101.057,296.974,66.494,280.887Z"/>
<path class="c" d="M215.609,283.3c5.748-2.7,11.076-6.555,16.31-10.112,5.542-3.767,11.136-7.579,16.3-11.854,1.73-1.431,3.806-3.39,2-5.733-1.618-2.093-4.359-3.437-6.627-4.69-8.349-4.613-17.123-8.485-25.768-12.5-5.58-2.593-11.191-5.137-16.655-7.968-3.8-1.968-7.434-4.289-11.27-6.173a2.868,2.868,0,0,0-3.831,1c-11.306,18.555-22.273,37.316-33.4,55.982q-4.266,7.161-8.569,14.3a2.823,2.823,0,0,0,1.673,4.113,59.666,59.666,0,0,0,20.033.163,137.109,137.109,0,0,0,28.413-7.56c7.258-2.667,14.376-5.714,21.386-8.971a2.822,2.822,0,0,0,1-3.83,2.864,2.864,0,0,0-3.831-1A219.978,219.978,0,0,1,179.1,291.3a115.9,115.9,0,0,1-12.944,2.864q-.787.124-1.577.234c-.1.015-.555.073-.028,0-.254.032-.508.065-.762.1q-1.349.163-2.7.28c-1.659.141-3.324.226-4.989.241s-3.356-.043-5.028-.192q-.555-.049-1.109-.113c-.181-.02-.361-.044-.541-.065-.559-.063.629.1.036,0-.732-.122-1.463-.235-2.191-.382l1.674,4.113c11.291-18.682,22.313-37.525,33.515-56.26q4.2-7.026,8.448-14.022l-3.83,1c2.979,1.464,5.807,3.27,8.734,4.838,4.8,2.571,9.725,4.892,14.66,7.194,8.786,4.1,17.645,8.074,26.281,12.487a75.335,75.335,0,0,1,8.359,4.774c.592.406-.326-.321.087.06.139.129.292.242.43.374.017.017.362.375.359.377-.2.112-.446-.643-.283-.36a2.836,2.836,0,0,1-.044-2.64c.305-.518.44-.475.007-.068-.256.24-.511.48-.777.71-.359.312-.727.614-1.1.913-.2.158-.392.314-.589.47-.154.122-1.008.784-.378.3q-1.74,1.338-3.514,2.632-4.347,3.184-8.8,6.223c-3.324,2.28-6.678,4.518-10.088,6.669a71.685,71.685,0,0,1-7.635,4.409,2.823,2.823,0,0,0-1,3.831A2.861,2.861,0,0,0,215.609,283.3Z"/>
<path class="c" d="M156.161,287.552c12.984-1.807,25.51-6.376,37.416-11.731a200.192,200.192,0,0,0,30.968-17.171,70.2,70.2,0,0,0,10.279-8.1c2.545-2.558-1.413-6.519-3.96-3.96a42.091,42.091,0,0,1-3.475,3.077q-.5.405-1.015.8c.389-.3.025-.02-.151.113-.218.164-.436.329-.654.492q-1.3.974-2.64,1.905c-4.274,3-8.719,5.748-13.245,8.345A194.718,194.718,0,0,1,175.249,277.1a113.444,113.444,0,0,1-20.577,5.055c-1.5.209-2.319,2.123-1.956,3.444a2.875,2.875,0,0,0,3.445,1.956Z"/>
<path class="c" d="M67.907,278.469c-5.494-2.58-10.59-6.243-15.6-9.633q-4.486-3.035-8.89-6.193-1.959-1.41-3.894-2.853-.829-.621-1.652-1.254c.518.4-.031-.026-.241-.191q-.364-.287-.727-.579c-.645-.521-1.266-1.061-1.875-1.623-.388-.359-.367-.557.018.085a5.066,5.066,0,0,1-.008,2.556c-.414.773-.271.338.03.05.137-.132.289-.247.43-.374.437-.395-.535.367.087-.06.534-.366,1.068-.728,1.619-1.07,1.348-.834,2.738-1.6,4.137-2.347,8.4-4.485,17.125-8.374,25.757-12.388,5.368-2.5,10.756-4.96,16-7.706,3.539-1.851,6.936-4.022,10.519-5.782l-3.831-1c11.306,18.555,22.273,37.316,33.395,55.982q4.266,7.161,8.569,14.3l1.673-4.113q-.918.186-1.843.33c-.174.027-.349.05-.523.077.054-.009.7-.084.212-.029-.364.041-.727.088-1.092.125-1.435.146-2.877.222-4.319.242-1.615.022-3.23-.027-4.842-.132q-1.314-.086-2.625-.22-.621-.063-1.24-.136c-.253-.03-.5-.061-.758-.093a1.849,1.849,0,0,1-.283-.037,136.94,136.94,0,0,1-27.779-7.386C81.4,284.48,74.6,281.58,67.907,278.469a2.881,2.881,0,0,0-3.831,1,2.822,2.822,0,0,0,1.005,3.83,227.585,227.585,0,0,0,35.341,13.486,94.421,94.421,0,0,0,24.383,3.831,49.7,49.7,0,0,0,10.108-.949,2.822,2.822,0,0,0,1.673-4.113c-11.291-18.682-22.313-37.525-33.515-56.26q-4.2-7.026-8.449-14.022a2.871,2.871,0,0,0-3.831-1c-3.156,1.55-6.151,3.463-9.256,5.116-4.97,2.645-10.071,5.022-15.173,7.4-8.984,4.186-18.059,8.229-26.843,12.829a42.417,42.417,0,0,0-8.086,4.97c-1.088.933-1.99,2.18-1.556,3.7a5.006,5.006,0,0,0,1.616,2.214c4.553,4.137,9.877,7.593,14.927,11.078,3.491,2.409,7.017,4.773,10.6,7.045a74.246,74.246,0,0,0,8.062,4.678,2.878,2.878,0,0,0,3.831-1A2.824,2.824,0,0,0,67.907,278.469Z"/>
<path class="c" d="M126.019,282.152c-12.554-1.747-24.739-6.053-36.252-11.244A200.93,200.93,0,0,1,59.2,253.969q-1.566-1.066-3.1-2.179-.681-.495-1.354-1-.321-.243-.641-.487c.432.33-.06-.048-.219-.174a44.643,44.643,0,0,1-4.059-3.541c-2.545-2.558-6.506,1.4-3.96,3.96a65.539,65.539,0,0,0,8.854,7.114c4.293,3.022,8.763,5.8,13.314,8.411a202.923,202.923,0,0,0,35.558,16.3,113.958,113.958,0,0,0,20.938,5.177,2.9,2.9,0,0,0,3.444-1.956c.36-1.309-.448-3.234-1.955-3.444Z"/>
<path class="c" d="M125.672,300.054c0,3.993.189,7.984.193,11.976a2.8,2.8,0,0,0,5.6,0c0-3.992-.19-7.983-.193-11.976a2.8,2.8,0,0,0-5.6,0Z"/>
<path class="c" d="M151.366,300.054c0,3.993-.189,7.984-.193,11.976a2.8,2.8,0,1,0,5.6,0c0-3.992.19-7.983.193-11.976a2.8,2.8,0,0,0-5.6,0Z"/>
<path class="e" d="M123.976,281.985c.557,5.055,2.325,13.7,3.02,18.654a61.946,61.946,0,0,0,14.682,3.837,42.205,42.205,0,0,0,13.015-4.061,112.246,112.246,0,0,0,2.916-18.43C156.533,281.7,126.685,281.985,123.976,281.985Z"/>
<path class="c" d="M121.176,281.985c.55,4.855,1.49,9.66,2.324,14.472.179,1.036.356,2.074.522,3.113.271,1.7.417,3.012,2.23,3.769a53.079,53.079,0,0,0,7.943,2.548c2.682.651,5.959,1.674,8.7,1.2a49.911,49.911,0,0,0,7.354-1.793,28.562,28.562,0,0,0,5.856-2.466c1.71-1.055,1.907-4.155,2.267-5.978a99.3,99.3,0,0,0,2.036-14.87,2.823,2.823,0,0,0-2.056-2.7,20.114,20.114,0,0,0-4.141-.206c-2.5-.024-5-.021-7.5-.017q-8.761.016-17.523.09c-1.737.012-3.475.032-5.213.033-3.6,0-3.609,5.6,0,5.6,9.725-.006,19.449-.176,29.173-.114,1,.006,2,.014,3,.037.319.008.637.023.956.031.682.018,0,0-.238-.054l-2.055-2.7a80.734,80.734,0,0,1-2.816,17.686L153.28,298a30.932,30.932,0,0,1-4.985,2.054,56.92,56.92,0,0,1-7.362,1.725h1.489a59.76,59.76,0,0,1-14.682-3.837l1.956,1.955c-.434-3.043-1-6.067-1.528-9.094-.517-2.948-1.09-6.145-1.392-8.815a2.884,2.884,0,0,0-2.8-2.8A2.818,2.818,0,0,0,121.176,281.985Z"/>
<path class="c" d="M104.545,85.909c-.463-1.307-.725-2.753.106-3.8a4.526,4.526,0,0,1,2.078-1.23l4.538-1.674a5.245,5.245,0,0,1,5.957,1.692,108.421,108.421,0,0,1,10.82,16.992,5.213,5.213,0,0,1-2.05,6.883,50.344,50.344,0,0,1-6.917,3.273,5.225,5.225,0,0,1-6.667-2.935l-7.582-18.47C104.73,86.407,104.634,86.161,104.545,85.909Z"/>
<path class="c" d="M223.326,116.3c3.343-20.491,1.615-42.073-8.494-60.528a80.437,80.437,0,0,0-18.9-22.946,87.827,87.827,0,0,0-87.8-13.853A85.3,85.3,0,0,0,71.434,47.339,80.922,80.922,0,0,0,55.757,97.678c.082,2.637.275,5.269.516,7.895a2.875,2.875,0,0,0,2.8,2.8,2.821,2.821,0,0,0,2.8-2.8,85.738,85.738,0,0,1,1.666-28.35,74.046,74.046,0,0,1,9.308-22.069,78.952,78.952,0,0,1,30.927-28.127c16.905-8.587,37.322-10.49,55.71-6.205a78.566,78.566,0,0,1,46.293,30.989c11.55,16.518,15.016,36.848,13,56.638-.217,2.13-.507,4.248-.852,6.361a2.885,2.885,0,0,0,1.956,3.444,2.821,2.821,0,0,0,3.444-1.955Z"/>
<path class="c" d="M128.438,175.563a27.006,27.006,0,0,0,13,3c4.591-.03,9.3-.9,12.99-3.775,1.194-.931.976-2.984,0-3.96a2.871,2.871,0,0,0-3.96,0c.807-.629.036-.048-.17.084q-.4.258-.825.478c-.164.086-1.08.493-.461.242q-.561.228-1.138.413a20.907,20.907,0,0,1-6.865.918,21.843,21.843,0,0,1-6.553-.883c-.417-.124-.823-.273-1.234-.415-.134-.046-.265-.105-.4-.154.682.253.077.034-.051-.026-.511-.239-1.013-.491-1.512-.755a2.862,2.862,0,0,0-3.831,1,2.831,2.831,0,0,0,1,3.831Z"/>
<path class="c" d="M140.321,144.538a62.593,62.593,0,0,1,1.473,6.739l-.1-.744a4.077,4.077,0,0,1,.025.93l.1-.744a2.218,2.218,0,0,1-.1.418l.282-.669a1.666,1.666,0,0,1-.147.269l.437-.566a1.411,1.411,0,0,1-.22.217l.567-.438a4.319,4.319,0,0,1-.534.282l.669-.282a3.872,3.872,0,0,1-.9.263l.745-.1a3.619,3.619,0,0,1-.845,0l.744.1c-.318-.044-.631-.122-.949-.165a3.1,3.1,0,0,0-2.158.283,2.8,2.8,0,0,0-1,3.831,2.675,2.675,0,0,0,1.673,1.286c.667.09,1.314.262,1.991.291a6.237,6.237,0,0,0,2.861-.669,3.986,3.986,0,0,0,2.251-2.644,6.888,6.888,0,0,0-.032-2.922c-.367-2.171-.869-4.323-1.427-6.453a2.8,2.8,0,1,0-5.4,1.489Z"/>
<path class="c" d="M104.053,125.626c-1.126,3.657-.392,12.071,6.537,12.787,9.158-.055,9.645-10.227,6.562-15.01C114.628,119.487,107.206,117.858,104.053,125.626Z"/>
<path class="c" d="M177.391,125.626c1.126,3.657.392,12.071-6.537,12.787-9.158-.055-9.646-10.228-6.563-15.01C166.815,119.487,174.237,117.858,177.391,125.626Z"/>
</g>
</svg>